<?xml version="1.0" encoding="UTF-8"?><svg id="_圖層_2" xmlns="http://www.w3.org/2000/svg" viewBox="0 0 86.46 83.77"><defs><style>.cls-1{letter-spacing:.25em;}.cls-2{letter-spacing:.19em;}.cls-3,.cls-4,.cls-5{fill:#ebe0d1;}.cls-3,.cls-5{font-family:Raleway-Black, Raleway;font-size:4.4px;font-weight:800;}.cls-4{stroke-width:0px;}.cls-5,.cls-6{letter-spacing:.25em;}</style></defs><g id="OBJECTS"><path class="cls-4" d="M34.57,15.75c.06,0,.12,0,.17,0,.2,0,.39-.03.59-.05.31-.04.62-.08.93-.12,1.06-.17,2.11-.32,3.18-.41.3-.03.6-.04.9-.06.29-.03.59,0,.87-.08.44-.15.39-.79-.06-.88-.14-.03-.29-.02-.44-.01-1.68.09-3.36.25-4.99.66-.42.12-.86.21-1.23.45-.29.17-.3.47.07.5Z"/><path class="cls-4" d="M42.54,14.98s.07.01.1.01c.46,0,.66-.63.21-.88-.26-.14-.62.03-.68.33-.06.24.12.5.37.54Z"/><path class="cls-4" d="M53.53,32.16c-.65-1.45-1.47-2.96-2.4-4.29,0,0,0,0,0,0,.02-.1,0-.21-.06-.33-.11-.18-.33-.27-.53-.21-.23.1-.44.25-.68.32-.37.13-.76.18-1.14.12-1.28-.25-2.09-1.32-3.48-1.28-.97.02-1.86.58-2.47,1.3-.63.72-1.04,1.79-2.04,2.05-.51.1-1.05-.02-1.49-.29-.68-.5-1.12-.91-2.04-.7-.63.13-1.03.67-1.57.96-.82.45-1.72.28-2.53-.09-.61-.26-1.12-.73-1.77-.89-.63-.16-1.27.1-1.78.46-.08.07-.18.15-.27.24,0,0,0,0,0,0-.84.44-1.53,3.65-1.81,4.56-1.65,6.14-2.3,12.55-1.75,18.88.15,1.7.37,3.39.72,5.06.22.8.22,1.89,1.09,2.27,2.99,1.44,6.34,2.05,9.64,2.16.3,0,.6.01.9.01,2.18,0,4.36-.19,6.53-.41,1.77-.21,3.49-.7,5.18-1.22,1.72-.56,3.42-1.24,4.97-2.22.24-.15.33-.43.33-.7.05-.52.13-1.04.19-1.55.31-2.69.31-5.4.3-8.1.14-5.41.22-11.06-2.02-16.11ZM54.12,57.9c-2.67,1.58-5.7,2.49-8.72,3.09-2.65.37-5.33.56-8,.53-2.67-.05-5.33-.49-7.85-1.39-.53-.19-1.05-.4-1.55-.66-.21-.07-.29-.25-.34-.45-1.22-4.92-1.38-10.08-.98-15.12.3-3.6,1.03-7.14,1.98-10.62.25-.93.52-1.85.89-2.74.02-.04.04-.09.06-.14,0,0,0,0,0,0,.15-.11.27-.24.42-.34.21-.14.45-.25.7-.32.54-.1.98.33,1.43.56.67.37,1.4.65,2.16.72.07,0,.13,0,.2,0,.51,0,1.02-.13,1.47-.35.2-.1.4-.22.58-.36.35-.28.72-.65,1.2-.56.39.09.65.43.99.62.73.44,1.69.59,2.5.28.52-.21.95-.59,1.29-1.03.42-.51.74-1.11,1.23-1.56.43-.38.98-.67,1.56-.64.75.03,1.35.54,2,.85.69.35,1.48.56,2.25.41.27-.05.53-.13.78-.24,0,0,0,0,0,0,.51.74.97,1.51,1.4,2.3,1.63,2.89,2.41,6.15,2.71,9.44.28,3.07.09,6.15.1,9.23.06,2.83-.11,5.67-.48,8.47Z"/><path class="cls-4" d="M34.51,29.53s.07.01.1.01c.24,0,.43-.21.36-.46-.06-.14-.08-.28-.09-.43-.06-.64.19-1.28.1-1.92-.13-.8-.88-1.35-1.62-.86-.4.26-.52.78-.53,1.23-.01.54.15,1.07.45,1.52.25.44.7.89,1.23.92ZM33.64,26.49c.1-.13.2-.19.29-.19.31,0,.48.69.42,1-.07.49-.1,1-.04,1.49-.39-.33-.66-.78-.81-1.27-.06-.34-.04-.73.14-1.03Z"/><path class="cls-4" d="M39.63,27.87c.08.06.17.08.28.08.33,0,.75-.22.96-.35.37-.23.69-.53.95-.89.33-.5.66-1.06.63-1.67-.04-1.06-1.04-1.5-1.86-.85-.8.62-.5,1.37-.65,2.23-.05.28-.21.53-.34.79-.08.16-.17.34-.09.52.03.06.07.11.12.15ZM40.67,25.81c.02-.32.13-.61.27-.89.04-.09.1-.18.17-.25.08-.06.17-.14.27-.14.02,0,.03,0,.05,0,.04.02.07.05.11.07.07.05.13.11.16.2.11.34-.03.71-.18,1.02-.25.55-.72.94-1.18,1.31.19-.42.29-.88.32-1.34Z"/><path class="cls-4" d="M32.75,34.55c.04-.62-.6-1.07-1.18-1-.26.03-.47.21-.64.4-.45.53-.31,1.6.44,1.76.06.01.12.01.17.01.62,0,1.19-.54,1.2-1.18ZM32.12,35.02c-.09.08-.21.14-.33.16-.73.09-.83-.97-.14-1.08.03,0,.07,0,.1,0,.09,0,.19,0,.27.06.09.09.21.18.24.31.04.19-.02.4-.14.55Z"/><path class="cls-4" d="M32.3,36.79c-.16.36-.01.86.43.87.02,0,.04,0,.05,0,.43,0,.82-.44.62-.86-.14-.35-.57-.49-.87-.26-.1.06-.19.14-.23.25ZM32.78,36.77s.01,0,.02,0c.35,0,.5.51.09.58-.41.06-.45-.49-.11-.58Z"/><path class="cls-4" d="M28.81,37.66c-.54.9-.18,1.99.95,2.09.02,0,.03,0,.05,0,.26,0,.52-.07.75-.2.24-.14.38-.34.55-.58.17-.34.14-.78,0-1.13-.45-.95-1.69-1.05-2.3-.19ZM30.61,38.4c-.02.37-.22.74-.63.74-.49.06-.88-.44-.72-.9.11-.33.24-.52.59-.52.02,0,.03,0,.05,0,.44-.06.74.24.7.68Z"/><path class="cls-4" d="M53.5,47.13c-.16.02-.29.11-.41.2-.17.08-.25.12-.46.19-.7.21-1.17-.03-1.54-.26-.34-.22-.59-.43-.84-.31-.47.33.17.95.48,1.17.1.07.2.13.3.18-.01.01-.02.03-.03.04-.12.17-.26.32-.4.48-1.88,1.97-5.25,2.95-7.93,2.69-1.2-.11-2.35-.5-3.47-.93-.09-.03-.19-.07-.3-.12,0,0,0,0,0,0,.28-1.24-.11-2.64-1.25-3.31-.27-.16-.91-.41-.98.07.03.35.43.52.65.75.62.55.85,1.45.68,2.25-.2.95-1.05,1.6-1.88,2.01-.24.13-.55.12-.75.31-.2.19-.17.53.06.68.09.06.2.09.33.09.73,0,1.9-.88,2.28-1.28.23-.21.42-.47.56-.74,0,0,0,0,0,0,.22.11.46.2.61.27.75.31,1.53.56,2.33.73.64.14,1.32.21,2.02.21,2.96,0,6.24-1.21,8.06-3.38.15-.18.28-.37.4-.57h0s.07,0,.11,0c.52,0,1.06-.13,1.47-.45.16-.11.31-.23.37-.43.09-.27-.15-.58-.44-.54Z"/><path class="cls-4" d="M34.07,55.88c-.3-.42-.9-.63-1.38-.4-.11.05-.21.13-.29.22-.09.06-.17.13-.22.22-.48.67,0,1.65.81,1.7.04,0,.07,0,.11,0,.91,0,1.61-.94.97-1.74ZM33.16,56.87c-.25.03-.52-.16-.5-.42.01-.23.14-.44.39-.44.01,0,.03,0,.04,0,.54,0,.7.82.06.86Z"/><path class="cls-4" d="M34.96,57.97c-.33,0-.66.16-.82.46-.27.57.02,1.27.67,1.37.06.01.13.02.19.02.54,0,1.02-.43.98-1.01-.04-.5-.52-.91-1.02-.84ZM34.94,59.19c-.15.02-.31-.12-.31-.28.06-.24.34-.34.55-.4.19.23.07.65-.24.68Z"/><path class="cls-4" d="M10.47,58.88c-.36.21-.99.61-.63,1.08.09.1.2.14.31.14.22,0,.46-.16.62-.31.28-.26.76-.43.83-.84-.05-.63-.81-.28-1.13-.07Z"/><path class="cls-4" d="M10.39,57.03c.04-.06.08-.14.07-.22-.07-.42-.78-.16-1.02-.04-.39.22-1.18.67-.79,1.2.1.1.21.15.32.15.33,0,.66-.42.93-.61.18-.15.36-.29.5-.48Z"/><path class="cls-4" d="M57.36,76.36h0c.31,0,.47-.23.47-.47,0-.23-.16-.47-.48-.47-.58.02-.58.9,0,.93Z"/><path class="cls-4" d="M50.48,46.04c.14.05.28.08.42.08.04,0,.08,0,.12,0,.17-.02.34-.08.5-.17.47-.29.86-.9,1.05-1.7.25-1.26.08-2.42-.29-3.3h-.02s-.05.04-.05.04l-.05.03-.05.03-.05.02-.05.02-.05.02-.05.02-.05.02-.05.02-.05.02-.05.02-.05.02-.05.02-.05.02-.05.02-.05.02-.04.03-.04.03-.04.02-.04.02-.04.02-.04.02-.04.02-.04.02-.04.02-.04.02-.03.02-.03.02-.03.02-.03.02-.03.02-.03.02-.03.02h-.03s-.03.03-.03.03l-.03.02h-.03s-.03.03-.03.03h-.02s-.02.03-.02.03h-.02s-.02.03-.02.03h-.02s-.02.03-.02.03h-.02s-.02.03-.02.03h-.02s-.02.03-.02.03l-.02.02h-.02s-.02.03-.02.03h-.02s-.02.03-.02.03h-.02s-.02.03-.02.03h-.02s-.02.02-.02.02h-.02s-.02.02-.02.02h-.01s-.01.02-.01.02h-.01s-.01.01-.01.01h0s0,0,0,0h0s0,0,0,0h0s0,0,0,0h0s0,0,0,0h0s0,0,0,0h0s0,0,0,0h0s0,0,0,0h0s0,0,0,0h0s0,0,0,0h0s0,0,0,0h0s0,0,0,0h0s0,0,0,0h0s0,0,0,0h0s0,0,0,0h0s0,0,0,0h0s0,0,0,0h0s0,0,0,0h0s0,0,0,0h0s0,0,0,0h0s0,0,0,0h0s0,0,0,0h0s0,0,0,0h0s0,0,0,0h0s0,0,0,0h0s0,0,0,0h0s0,0,0,0h0s0,0,0,0h0s0,0,0,0h0s0,0,0,0h0s0-.01,0-.01h0s0-.01,0-.01h0s0-.01,0-.01h0s0-.01,0-.01h0s0-.01,0-.01h0s0-.01,0-.01h0s0-.01,0-.01h0s0-.01,0-.01h0s0-.01,0-.01h0s0-.01,0-.01h0s0-.02,0-.02h0s0-.02,0-.02h0s0-.02,0-.02h0s0-.02,0-.02h0s0-.02,0-.02h0s0-.02,0-.02h0s0-.02,0-.02h0s0-.02,0-.02h0s0-.02,0-.02h0s0-.02,0-.02h0s0-.02,0-.02h0s0-.02,0-.02h0s0-.02,0-.02h0s0-.02,0-.02h0s0-.02,0-.02h0s0-.02,0-.02h0s0-.02,0-.02h0s0-.02,0-.02h0s0-.02,0-.02h0s0-.02,0-.02h0s0-.03,0-.03h0s0-.03,0-.03h0s0-.03,0-.03v-.02s.02-.02.02-.02v-.02s.02-.02.02-.02v-.02s.02-.02.02-.02v-.02s.02-.02.02-.02v-.02s.02-.02.02-.02v-.02s.02-.02.02-.02v-.02s.02-.02.02-.02v-.02s.02-.02.02-.02v-.02s.02-.02.02-.02v-.02s.02-.02.02-.02v-.02s.02-.02.02-.02v-.02s.02-.03.02-.03v-.03s.02-.03.02-.03v-.02s.02-.02.02-.02v-.02s.02-.02.02-.02v-.03s.02-.02.02-.02v-.02s.02-.02.02-.02v-.02s.02-.02.02-.02v-.02s.02-.02.02-.02v-.02s.02-.02.02-.02v-.02s.02-.02.02-.02v-.02s.02-.02.02-.02v-.02s.02-.02.02-.02v-.02s.02-.02.02-.02v-.03s.03-.03.03-.03v-.03s.03-.03.03-.03v-.03s.03-.03.03-.03v-.03s.03-.03.03-.03v-.03s.03-.03.03-.03v-.03s.03-.03.03-.03v-.03s.03-.03.03-.03v-.03s.03-.03.03-.03v-.03s.03-.03.03-.03v-.03s.03-.03.03-.03v-.03s.03-.02.03-.02v-.03s.03-.02.03-.02v-.02s.02-.02.02-.02h0c-.88-.74-1.96-.52-2.47,1.35-.41,1.87.27,4.63,1.59,5.04Z"/><path class="cls-4" d="M39.53,47.1c.14.05.28.08.42.08.04,0,.08,0,.12,0,.17-.02.34-.08.5-.17.47-.29.86-.9,1.05-1.7.25-1.26.08-2.42-.29-3.3h-.02s-.05.04-.05.04l-.05.03-.05.03-.05.02-.05.02-.05.02-.05.02-.05.02-.05.02-.05.02-.05.02-.05.02-.05.02-.05.02-.05.03-.05.02-.04.03-.04.03-.04.02-.04.02-.04.02-.04.02-.04.02-.04.02-.04.02-.04.02-.03.02-.03.02-.03.02-.03.02-.03.02-.03.02-.03.02h-.03s-.03.03-.03.03l-.03.02h-.03s-.03.03-.03.03h-.02s-.02.03-.02.03h-.02s-.02.03-.02.03h-.02s-.02.03-.02.03h-.02s-.02.03-.02.03h-.02s-.02.03-.02.03l-.02.02h-.02s-.02.03-.02.03h-.02s-.02.03-.02.03h-.02s-.02.03-.02.03h-.02s-.02.02-.02.02h-.02s-.02.02-.02.02h-.01s-.01.02-.01.02h-.01s-.01.01-.01.01h0s0,0,0,0h0s0,0,0,0h0s0,0,0,0h0s0,0,0,0h-.01s0,0,0,0h0s0,0,0,0h0s0,0,0,0h0s0,0,0,0h0s0,0,0,0h0s0,0,0,0h0s0,0,0,0h0s0,0,0,0h0s0,0,0,0h0s0,0,0,0h0s0,0,0,0h0s0,0,0,0h0s0,0,0,0h0s0,0,0,0h0s0,0,0,0h0s0,0,0,0h0s0,0,0,0h0s0,0,0,0h0s0,0,0,0h0s0,0,0,0h0s0,0,0,0h0s0,0,0,0h0s0,0,0,0h0s0,0,0,0h0s0-.01,0-.01h0s0-.01,0-.01h0s0-.01,0-.01h0s0-.01,0-.01h0s0-.01,0-.01h0s0-.01,0-.01h0s0-.01,0-.01h0s0-.01,0-.01h0s0-.01,0-.01h0s0-.01,0-.01h0s0-.01,0-.01h0s0-.02,0-.02h0s0-.02,0-.02h0s0-.02,0-.02h0s0-.02,0-.02h0s0-.02,0-.02h0s0-.02,0-.02h0s0-.02,0-.02h0s0-.02,0-.02h0s0-.02,0-.02h0s0-.02,0-.02h0s0-.02,0-.02h0s0-.02,0-.02h0s0-.02,0-.02h0s0-.02,0-.02h0s0-.02,0-.02h0s0-.02,0-.02h0s0-.02,0-.02h0s0-.02,0-.02h0s0-.02,0-.02h0s0-.02,0-.02h0s0-.03,0-.03h0s0-.03,0-.03h0s0-.03,0-.03v-.02s.02-.02.02-.02v-.02s.02-.02.02-.02v-.02s.02-.02.02-.02v-.02s.02-.02.02-.02v-.02s.02-.02.02-.02v-.02s.02-.02.02-.02v-.02s.02-.02.02-.02v-.02s.02-.02.02-.02v-.02s.02-.02.02-.02v-.02s.02-.02.02-.02v-.02s.02-.02.02-.02v-.03s.02-.03.02-.03v-.03s.02-.02.02-.02v-.02s.02-.02.02-.02v-.02s.02-.03.02-.03v-.02s.02-.02.02-.02v-.02s.02-.02.02-.02v-.02s.02-.02.02-.02v-.02s.02-.02.02-.02v-.02s.02-.02.02-.02v-.02s.02-.02.02-.02v-.02s.02-.02.02-.02v-.02s.02-.02.02-.02v-.02s.02-.03.02-.03v-.03s.03-.03.03-.03v-.03s.03-.03.03-.03v-.03s.03-.03.03-.03v-.03s.03-.03.03-.03v-.03s.03-.03.03-.03v-.03s.03-.03.03-.03v-.03s.03-.03.03-.03v-.03s.03-.03.03-.03v-.03s.03-.03.03-.03v-.03s.03-.03.03-.03v-.02s.03-.03.03-.03v-.03s.03-.02.03-.02v-.02s.01,0,.01,0c-.88-.73-1.96-.51-2.47,1.35-.41,1.87.27,4.63,1.59,5.04Z"/><path class="cls-4" d="M75.98,37.7c-.31-.21-.64-.33-.97-.37.15-.38.27-.77.4-1.17.47-1.38.62-3.79-1.14-4.27-.59-.13-1.24.08-1.7.45-.4.35-.72.77-.98,1.23-.04-.3-.1-.59-.2-.87-.28-.95-.98-1.41-1.96-1.26-1.2.16-1.73,1.44-1.98,2.49-.24.96-.2,1.96-.08,2.93.07.31.03.92.21,1.27-1.33.82-2.25,2.19-2.03,3.85.18.98.79,1.94,1.67,2.42-.28.31-.44.72-.38,1.15.09.64.67,1.14,1.3,1.2.05,0,.1,0,.16,0-.06.11-.11.22-.15.34-.45,1.31-1.26,2.73-2.71,3.05-1.55.45-3.04-.56-4.09-1.62-.86-.87-1.54-1.91-2.14-2.97-.43-.8-.86-1.61-1.21-2.45-.21-.49-.36-1.02-.5-1.54-.02-.28-.04-.56-.07-.84-.37-3.88-.69-7.94-2.61-11.42-.66-1.18-1.63-2.16-2.66-3.02-1.43-1.23-3.34-1.96-4.36-3.61-.14-.24-.25-.49-.34-.75.01,0,.02.01.04.02.42.23.91.45,1.57.42,1.61.03,2.84-1.65,1.61-2.97-.43-.5-.98-.85-1.45-1.31-.08-.07-.14-.16-.2-.25.09-.09.16-.18.21-.28.19-.38.06-.88-.3-1.11-.19-.13-.42-.2-.64-.23,0-.15,0-.3-.01-.44-.09-.77-.18-1.63-.75-2.21-1.37-1.38-8.28-.97-10.27-.63-1.51.27-3.27.59-4.22,1.92-.37.52-.53,1.17-.47,1.81,0,.07.02.14.03.22-.51.11-.95.49-.86,1.08.06.38.33.66.65.86-.09.17-.17.34-.27.45-.39.51-.96.82-1.39,1.29-1.38,1.45-.71,3.58,1.42,3.43.12,0,.23-.03.34-.06-.28.3-.59.57-.92.82-1.35,1.01-2.87,1.81-3.94,3.15-1.31,1.58-2.2,3.49-2.72,5.48-.29,1.14-.46,2.31-.62,3.48-.24,2.04-.44,4.08-.58,6.13-.07.12-.14.25-.19.37-.17.37-.31.75-.48,1.13-.99,2.28-2.36,4.37-3.93,6.28-.95,1.18-1.95,2.34-3.13,3.3-.31.24-.64.46-.95.68-.07.05-.16.11-.26.18-.12-.3-.36-.54-.68-.63-.63-.18-1.28.09-1.73.55-.27-.28-.86-.39-1.17-.47-1.09-.21-2.25-.05-3.26.4-1.07.48-2.02,1.21-2.8,2.08-.38.41-.76.85-.92,1.4-.27.79.03,1.85.76,2.28.03.02.07.03.11.04-.24,1.17.48,2.52,1.74,2.63.07,0,.15.01.22,0,.08,1.14.95,2.18,2.29,2.36.5.06,1-.03,1.46-.22.33-.15.92-.45.99-.82,1.91.22,3.65-1.38,4.05-3.18.14-.67.13-1.39-.07-2.05-.02-.11-.06-.2-.12-.28.44-.27.77-.73.84-1.31.08-.35.05-.78-.18-1.04.36-.18.67-.44.99-.71.64-.55,1.26-1.12,1.87-1.71,1.12-1.1,2.17-2.27,3.11-3.53.45-.61.89-1.25,1.28-1.91.02,1.8.1,3.6.24,5.39.11,1.26.25,2.51.42,3.77.11.76.2,1.53.45,2.25.22.6.64,1.12,1.19,1.46,1.42.89,3.07,1.27,4.67,1.71,1.86.45,3.77.76,5.68.82.35.01.71.02,1.06.03.06.21.25.42.39.57,1.89,2.06,4.08,3.82,6.34,5.45,1.46,1.05,2.97,2.05,4.58,2.86.7.35,1.41.69,2.15.94-.1.05-.19.11-.27.19-.47.46-.27,1.16.13,1.61,0,0,0,.01,0,.02-.41.94-.21,2.03.17,2.95.74,1.79,2.5,3.13,4.46,3.16.11,0,.22,0,.33,0,1.84,0,3.6-.64,5.3-1.31,1.15-.44,2.25-.98,3.29-1.67,1.64-1.07,3.16-2.35,4.38-3.88.8-1.05,1.31-2.31,1.58-3.59.34-1.85.05-3.85-.85-5.51-.73-1.25-1.93-2.24-3.31-2.7-1.43-.45-3.03-.5-4.44.05-.9.33-1.71.89-2.41,1.53-.92.83-1.62,1.86-2.12,2.98-.36.82-.63,1.7-.78,2.59-.09,0-.17.02-.25.04-.57.12-1.1.47-1.41.96,0,.01-.01.02-.02.03-.33-.26-.74-.41-1.22-.41-.6,0-1.15.25-1.17.92,0,.07,0,.14.01.21-.17-.08-.35-.15-.52-.23-.33-.15-.65-.32-.98-.47-1.56-.75-3.16-1.48-4.63-2.41-2-1.29-3.83-2.82-5.65-4.35-.16-.14-.33-.27-.49-.41.08,0,.16,0,.24,0,1.85,0,3.69-.19,5.52-.45.07-.01.14-.02.2-.03-.04.04-.08.07-.11.11-.4.38-.8.76-1.22,1.12-.39.32-.81.62-1.23.9.08.06.17.13.25.19.2.15.39.31.59.46.2.16.4.31.59.46.1.08.21.16.31.24.92-.58,1.81-1.3,2.52-2.14.48-.57.95-1.17,1.24-1.87,2.35-.49,4.66-1.21,6.72-2.47.45-.29.93-.57,1.25-1.01.19-.27.26-.59.32-.91.1-.57.16-1.15.22-1.72.3-2.71.58-5.42.55-8.15,0-.82-.03-1.64-.08-2.46,0-.08,0-.15-.01-.23.39.93.92,1.79,1.53,2.6.38.5.86,1.09,1.35,1.54.41.35.83.68,1.3.96.76.42,1.61.72,2.48.81,1.44.21,2.81-.55,3.75-1.59.59-.69,1.09-1.47,1.44-2.31.14-.35.31-.7.37-1.08.15.08.32.13.49.15.62.05,1.09-.25,1.3-.7.05.01.1.02.14.03,1.8.22,3.23-1.25,3.92-2.77.41-.83.69-1.77.54-2.7-.01-.06-.03-.11-.06-.16.2-.4.34-.82.4-1.26.15-.78-.05-1.7-.72-2.18ZM14.95,60.83c-.14,1.18-1.03,2.32-2.18,2.66-.37.11-.75.14-1.13.04-.16-.04-.34-.09-.46-.21.16-.56.72-.86,1.01-1.35.12-.18.02-.46-.21-.48-.52-.03-1.1.52-1.39.92-.61.83-.39,1.47.24,1.82-.13.09-.27.17-.41.23-.43.18-.93.23-1.37.05-.8-.32-1.24-1.12-1.03-1.97.11-.37.33-.7.51-1.04.15-.23.2-.59-.16-.63,0,0,0,0-.01,0-.24,0-.45.17-.6.34-.3.32-.5.67-.61,1.03-.09-.01-.17-.01-.26-.01-.43-.04-.74-.4-.86-.8-.3-.99.56-1.68,1.13-2.36.18-.2.24-.57-.09-.64-.23-.03-.44.09-.62.22-.38.29-.74.64-1,1.05-.03-.02-.05-.04-.07-.06-.13-.14-.22-.31-.27-.5-.21-.79.5-1.42.99-1.94.47-.49,1.01-.91,1.6-1.25.77-.47,1.65-.73,2.55-.75.46,0,.91.06,1.35.17.12.02.24.07.36.09-.18.45-.22.95-.16,1.42.13,1.2,1.21,2.16,2.37,2.37.22.05.44.06.65.03,0,.22.13.45.15.67.04.29.04.58,0,.87ZM14.65,58.35c-.81,0-1.64-.56-1.89-1.34-.19-.72,0-1.69.85-1.84.03,0,.06,0,.1,0,.06,0,.13.01.17.06.06.19.02.4.03.59.03.29.08.6.23.86.3.5.93.58,1.46.57.34.64-.37,1.1-.95,1.11ZM56.05,81c-.64.03-1.29.03-1.9-.17-.13-.05-.26-.1-.39-.17.02-.05.04-.11.07-.16.17-.31.42-.56.7-.76.28.19.6.31.91.44.65.27,1.33.47,2.02.6-.46.1-.93.18-1.41.21ZM58.2,80.59c-.53-.15-1.05-.32-1.56-.52-.5-.21-1-.43-1.48-.68,0,0-.02,0-.03-.01.06-.03.11-.06.17-.09.42-.22.87-.37,1.31-.53.13.28.75.47.97.55.3.1.59.2.89.29.52.14,1.04.29,1.57.37-.61.23-1.22.46-1.84.64ZM60.8,79.66c-.39-.08-.79-.16-1.17-.27-.53-.15-1.13-.31-1.66-.51-.25-.1-.49-.24-.74-.35,0,0,0,0-.01,0,.08-.03.17-.07.25-.11.57-.28,1.1-.62,1.59-1,.69.56,2.92,1.05,3.94,1.18-.7.41-1.44.77-2.2,1.07ZM63.38,78.35s-.05-.01-.08-.02c-.7-.16-1.4-.38-2.07-.64-.55-.2-1.05-.52-1.56-.81.29-.26.56-.52.82-.8.03-.04.07-.08.1-.11.84.54,3.13,1.13,4.33,1.3-.5.39-1.01.75-1.55,1.08ZM65.87,76.49c-.19.16-.38.33-.57.48-.31-.11-.64-.19-.95-.31-1.1-.39-2.2-.8-3.21-1.39.23-.31.43-.64.63-.97.28.14.57.28.85.41.98.44,2.02.76,3.08.93.31.05.61.11.92.15-.24.23-.49.46-.76.7ZM66.94,75.49c-.28-.09-.56-.16-.84-.25-.51-.16-1.02-.35-1.51-.55-.82-.34-1.62-.71-2.39-1.14,0,0,0,0,0,0,.18-.37.34-.75.48-1.13.41.19.83.33,1.26.47,1.41.5,2.91.65,4.39.81-.37.65-.82,1.23-1.37,1.8ZM69.17,71.35c-.17.77-.4,1.44-.7,2.03-.16-.05-.32-.08-.47-.13-.35-.1-.7-.19-1.05-.29-1.36-.38-2.71-.84-3.98-1.45.03-.09.06-.19.09-.28.12-.4.22-.82.35-1.24.27.16.57.26.85.37.37.13.74.23,1.12.33,1.2.33,2.51.49,3.75.59.01,0,.03,0,.05,0,0,.02,0,.04-.01.06ZM68.96,68.81c.16.46.24.94.28,1.4.01.25,0,.5-.01.75-.38-.11-.77-.22-1.15-.33-1.21-.33-2.46-.56-3.64-1.07-.26-.1-.51-.23-.78-.32.15-.37.35-.72.62-1.02.04-.04.07-.08.11-.12.11.04.22.06.33.09.19.04.38.09.56.13,1.18.25,2.37.45,3.58.49.02,0,.05,0,.09,0ZM68.08,68.18c-.96-.24-1.91-.48-2.87-.72.49-.3,1.06-.5,1.61-.5.28,0,.55.05.81.16.53.28.9.73,1.15,1.24-.23-.06-.47-.12-.7-.18ZM55.31,74.01c.16-.68.05-1.4-.29-1.95.03-.02.06-.05.09-.07.26-.2.52-.4.83-.52.05-.02.1-.03.15-.04-.02.32-.02.65,0,.97.04.47.29,2.33.84,2.37.11.02.2-.08.25-.17.12-.3.02-.64-.01-.94-.06-.4-.12-.8-.15-1.21-.08-1.54.34-3.19,1.03-4.59.89-1.8,2.62-3.44,4.62-3.86,1.63-.3,3.43.07,4.69,1.18.45.38.81.83,1.09,1.32-.26-.18-.55-.32-.87-.41-1.76-.41-3.68.74-4.53,2.26-.58,1.08-.75,2.32-1.16,3.46-.46,1.24-1.06,2.44-1.92,3.45-.79.88-1.72,1.66-2.77,2.22-.74.36-1.55.56-2.28.94-.73.37-1.5.86-1.84,1.64-.02.05-.04.1-.05.15-.53-.39-.96-.9-1.25-1.51-.35-.72-.59-1.58-.35-2.36.21.07.44.1.66.1,1.46.04,2.92-.99,3.24-2.44ZM52.07,74.51c.58-.41.97-1.09,1.03-1.8.02-.26,0-.53-.01-.79.05-.05.1-.07.16-.07.08,0,.18.03.26.05.57.18.91.78.94,1.36.08,1.18-1.01,2.16-2.14,2.24-.44.03-1.05-.1-1.16-.6.31-.14.65-.2.93-.39ZM33.74,15.5c1.17-1.9,6.18-1.92,8.25-1.96,1.51.04,3.09.02,4.56.47.63.25.67,1.02.77,1.61.03.16.02.36.03.54-.26.01-.51.04-.77.08-1.6.21-3.1.56-4.73.63-1.63.07-3.27.12-4.9.18-.54,0-1.08-.05-1.61-.07-.02,0-.03,0-.05,0-.04,0-.07,0-.11,0-.22,0-.43,0-.64-.02-.36-.03-.71-.08-1.07-.1,0-.02,0-.04,0-.06.02-.44.05-.9.29-1.28ZM32.14,23.02c-.78.13-1.45-.42-1.1-1.23.2-.55.69-.89,1.12-1.24.31-.24.87-.83,1.06-1.38.35.1.72.17,1.08.21,1.13.13,2.27.16,3.4.18.27,0,.54,0,.8,0,1.4,0,2.8-.06,4.2-.22,1.16-.12,2.31-.23,3.46-.42.5-.1,1.35-.28,2.03-.59.41.58,1.32,1.2,1.58,1.49.22.23.5.52.41.87-.23.68-1.09.8-1.71.64-.54-.12-.95-.53-1.47-.69-1.11-.33-1.74.31-2.37.94-.66.67-1.31,1.33-2.49.89-.87-.3-1.27-1.56-2.32-1.35-1.45.3-1.78,2.37-3.39,2.35-.67.03-1.07-.27-1.45-.56-.35-.28-.68-.57-1.18-.57h0c-.62.04-1.07.56-1.67.66ZM56.36,56.97c-.06.55-.12,1.1-.21,1.65-.07.47-.12.73-.53,1.01-2.99,2.12-6.71,2.81-10.27,3.33-1.56.21-3.13.39-4.7.42-1.07.01-2.13-.06-3.2-.1-1.68-.03-3.36-.13-5.01-.47-1.15-.21-2.29-.5-3.41-.84-.86-.25-1.72-.54-2.49-1-.27-.15-.53-.33-.71-.58-.35-.46-.44-1.05-.54-1.6-.52-3.25-.76-6.55-.81-9.84-.05-3.97.29-7.93.74-11.86.29-2.45.78-4.89,2.06-7.04.62-1.08,1.41-2.07,2.4-2.83,1.27-.97,2.76-1.71,3.78-2.98.16-.22.44-.56.54-.88.04.02.08.05.12.08.3.25.6.52.97.69.42.21.86.31,1.28.31,1.04,0,2.03-.58,2.65-1.5.29-.34.58-.81,1.06-.87.25.08.4.34.59.51.79.88,2.12,1.27,3.23.79.9-.32,1.36-1.21,2.12-1.72.11-.06.21-.1.32-.11.27,1.32,1.01,2.39,2.05,3.23.9.74,1.94,1.3,2.86,2.02.8.63,1.54,1.33,2.17,2.13,2.01,2.79,2.55,6.76,2.88,10.11.34,3.17.46,6.35.59,9.53.05,2.81-.21,5.61-.52,8.4ZM71.3,37.21c.02-.16.05-.31.08-.47.1-.33.19-.66.29-.99.29-.88.95-2.51,1.85-2.87.13-.05.25-.08.36-.08.56,0,.83.62.87,1.2.07.66-.07,1.31-.27,1.93-.14.43-.29.88-.46,1.3-.05.09-.09.19-.11.29-.27.13-.51.33-.71.58-.35-.25-.74-.43-1.15-.56-.25-.09-.5-.16-.77-.2,0-.05.01-.1.02-.14ZM68.21,35.18c.04-.68.19-1.35.46-1.97.25-.5.54-.84,1.08-.84.06,0,.13,0,.21.02.3.04.43.33.51.58.1.3.17.6.2.91.04.69,0,1.39-.11,2.07-.08.45-.17.9-.23,1.35-.67.02-1.35.18-1.98.44,0-.11,0-.21,0-.29-.04-.75-.17-1.5-.13-2.26ZM70.54,46.52c-.15,0-.24-.12-.33-.22-.08-.09-.17-.17-.27-.24-.26-.16-.56-.29-.87-.33-.02,0-.04,0-.07,0-.11,0-.23.02-.34.05-.15.03-.31.06-.47.04-.33-.05-.58-.41-.36-.7.25-.33.67-.34,1.05-.33.56.01,1.11.2,1.55.56.34.25.87,1.17.11,1.18ZM74.56,44.31c-.47.73-1.16,1.37-2.04,1.54-.19.04-.38.06-.57.09-.03,0-.06,0-.1.01-.02-.1-.04-.2-.08-.3-.25-.72-.88-1.25-1.56-1.55-.44-.18-.93-.28-1.42-.28-.25,0-.49.03-.73.08-.2-.22-.52-.33-.73-.54-.99-.92-1.17-2.25-.4-3.37,1.03-1.42,3.05-2.11,4.73-1.57.52.17,1.07.4,1.39.87.73,1.26-.5,1.7-1.55,1.75-.81.06-1.64.07-2.43-.15-.34-.18-.88-.04-.82.42.09.78,2.34.73,2.95.7.12,0,.25-.02.38-.03,0,.02.02.04.03.06.04.13.04.26.02.39-.05.24-.14.48-.27.69-.11.18-.27.4-.19.62.25.42.8,0,.99-.28.16-.21.27-.45.35-.7.09.1.19.19.3.26.8.44,1.85.03,2.48-.55.04-.03.07-.07.11-.1-.14.69-.47,1.33-.83,1.92ZM75.64,40.26c-.29.89-1.19,2.12-2.24,2-.18-.02-.29-.21-.32-.37-.01-.07-.02-.15-.04-.22.32-.14.61-.35.82-.65.49-.64.41-1.55,0-2.22.04-.05.07-.1.1-.14.11-.12.24-.23.39-.3.13-.06.27-.09.42-.09.25,0,.51.09.71.24.46.46.33,1.18.16,1.75Z"/><polygon class="cls-4" points="44.18 66.76 44.18 66.76 44.18 66.76 44.18 66.76"/><path class="cls-4" d="M25.34,78.41s.09.03.14.03c.3,0,.51-.41.25-.64-.44-.38-.92.38-.39.62Z"/><path class="cls-4" d="M40.33,68.36s-.03-.02-.04-.04c0,0,0,0,0,0,0,0,0,0,0,0,0,0,0,0,0,0h0s-.05-.04-.08-.07c0,0,0,0,0,0-.05-.04-.1-.08-.15-.13,0,0,0,0,.01,0-.03-.03-.07-.06-.1-.09,0,0,0,0,0,0,0,0,0,0,0,0h0s0,0,0,0c-.02-.01-.03-.03-.05-.04,0,0,0,0,0,0,0,0-.01-.01-.02-.02h0s0,0,0,0c0,0,0,0,0,0,0,0,0,0,0,0-.02-.01-.03-.03-.04-.04h0s0,0,0,0c0,0,0,0,0,0-.07-.06-.14-.12-.2-.19-.24.07-.47.14-.71.21-.99.28-2.01.48-3.02.68-.92.13-1.84.22-2.77.28-.14,0-.29,0-.43,0-.96,0-1.94.03-2.9-.09.07-.29.05-.59-.1-.86-.13-.31-.42-.5-.72-.62-.43-.14-.9-.06-1.31.11-.05.02-.1.05-.14.07-.14-.11-.31-.21-.4-.26-.38-.2-.8-.29-1.22-.36-.9-.15-1.85-.09-2.67.32-1.27.64-2.36,1.81-2.67,3.23-.13.59-.12,1.2-.08,1.81.09,1.22.28,2.44.63,3.62.8,2.92,2.59,5.26,5.24,6.73,1.55.91,3.4.98,5.14,1.13.31.02.64.03.97.03,1.57,0,3.27-.27,4.4-1.34.89-.88,1.27-2.19,1.23-3.43-.06-2.71-1.85-4.76-4.46-5.36-1.1-.23-2.24-.2-3.35.02,0,0,0,0,0-.01-.06-.13-.15-.25-.26-.35.28-.09.54-.26.71-.51.28-.33.26-.8.1-1.17-.11-.23-.27-.41-.45-.58.28.02.56.02.84.02h0c.87,0,1.73-.04,2.6-.1,1-.07,2-.13,2.99-.31,1.04-.21,2.08-.45,3.09-.78.21-.08.43-.15.64-.23.3-.08.59-.2.88-.32-.14-.12-.28-.24-.42-.36-.22-.19-.43-.39-.64-.59ZM33.2,74.52c2.68.51,4.28,2.71,3.87,5.42-.22,1.18-.84,2.08-2,2.48-1.02.36-2.13.44-3.21.39-1.05-.05-2.1-.16-3.13-.34-.86-.13-1.65-.49-2.38-.95-1.65-1.02-3-2.51-3.77-4.29-.66-1.52-1.02-3.17-1.16-4.82-.07-.76-.09-1.69.27-2.41.48-.94,1.33-1.71,2.32-2.09.42-.16.87-.22,1.32-.22.35,0,.7.04,1.04.09.22.04.43.1.64.17-.21.24-.37.53-.47.82-.45,1.4.07,3.04,1.23,3.95.4.36.91.58,1.45.63.03.11.12.23.15.33.02.06.05.13.07.19-.66.21-1.3.53-1.86.93-.44.3-1.9,1.63-1.72,2.18.07.24.35.4.59.32.2-.05.29-.24.39-.4.08-.12.16-.23.25-.35.3-.36.64-.68,1.02-.96,1.45-1.05,3.35-1.33,5.1-1.07ZM29.53,72.63c-.53.02-1-.33-1.36-.7-.68-.74-1.11-1.83-.81-2.83.16-.48.57-.98,1.08-1.07.02,0,.05,0,.07,0,.25,0,.55.13.54.41-.08.49-.46.9-.43,1.42.03.79.72,1.3,1.31,1.72.55.42.18,1-.41,1.05Z"/><polygon class="cls-4" points="40.49 68.48 40.49 68.48 40.49 68.48 40.49 68.48"/><polygon class="cls-4" points="40.49 68.48 40.49 68.48 40.49 68.48 40.49 68.48"/><polygon class="cls-4" points="40.49 68.48 40.49 68.48 40.48 68.48 40.49 68.48"/></g><g id="TEXTS"><text class="cls-3" transform="translate(0 73.68)"><tspan class="cls-6" x="0" y="0">ES</tspan><tspan class="cls-2" x="7.54" y="0">T</tspan><tspan class="cls-1" x="11.14" y="0">.</tspan></text><text class="cls-5" transform="translate(72.65 73.68)"><tspan x="0" y="0">2005</tspan></text><text class="cls-3" transform="translate(8.15 25.62) rotate(-61.36)"><tspan x="0" y="0">1</tspan></text><text class="cls-3" transform="translate(9.83 22.63) rotate(-56.22)"><tspan x="0" y="0">0</tspan></text><text class="cls-3" transform="translate(11.94 19.57) rotate(-50.9)"><tspan x="0" y="0">0</tspan></text><text class="cls-3" transform="translate(14.32 16.69) rotate(-44.83)"><tspan x="0" y="0">%</tspan></text><text class="cls-3" transform="translate(17.78 13.38) rotate(-39.96)"><tspan x="0" y="0"> </tspan></text><text class="cls-3" transform="translate(19.32 12.09) rotate(-35.42)"><tspan x="0" y="0">N</tspan></text><text class="cls-3" transform="translate(22.9 9.62) rotate(-29.47)"><tspan x="0" y="0">A</tspan></text><text class="cls-3" transform="translate(26.1 7.85) rotate(-24.33)"><tspan x="0" y="0">T</tspan></text><text class="cls-3" transform="translate(29.57 6.33) rotate(-18.47)"><tspan x="0" y="0">U</tspan></text><text class="cls-3" transform="translate(33.65 5.03) rotate(-12.51)"><tspan x="0" y="0">R</tspan></text><text class="cls-3" transform="translate(37.55 4.22) rotate(-6.79)"><tspan x="0" y="0">A</tspan></text><text class="cls-3" transform="translate(41.49 3.81) rotate(-1.41)"><tspan x="0" y="0">L</tspan></text><text class="cls-3" transform="translate(44.99 3.78) rotate(2.4)"><tspan x="0" y="0"> </tspan></text><text class="cls-3" transform="translate(46.87 3.85) rotate(6.48)"><tspan x="0" y="0">A</tspan></text><text class="cls-3" transform="translate(50.81 4.34) rotate(12.46)"><tspan x="0" y="0">N</tspan></text><text class="cls-3" transform="translate(55.03 5.34) rotate(18.61)"><tspan x="0" y="0">D</tspan></text><text class="cls-3" transform="translate(58.97 6.75) rotate(23.1)"><tspan x="0" y="0"> </tspan></text><text class="cls-3" transform="translate(60.83 7.54) rotate(27.73)"><tspan x="0" y="0">O</tspan></text><text class="cls-3" transform="translate(64.68 9.64) rotate(33.74)"><tspan x="0" y="0">R</tspan></text><text class="cls-3" transform="translate(67.96 11.88) rotate(39.62)"><tspan x="0" y="0">G</tspan></text><text class="cls-3" transform="translate(71.2 14.64) rotate(45.47)"><tspan x="0" y="0">A</tspan></text><text class="cls-3" transform="translate(73.94 17.48) rotate(51.37)"><tspan x="0" y="0">N</tspan></text><text class="cls-3" transform="translate(76.58 20.93) rotate(56.22)"><tspan x="0" y="0">I</tspan></text><text class="cls-3" transform="translate(77.93 22.95) rotate(60.88)"><tspan x="0" y="0">C</tspan></text></g></svg>