<?xml version="1.0" encoding="UTF-8"?><svg id="_圖層_2" xmlns="http://www.w3.org/2000/svg" viewBox="0 0 223.03 202.77"><defs><style>.cls-1,.cls-2{letter-spacing:.25em;}.cls-3{font-family:MaokenAssortedSans, MaokenAssortedSans;font-size:44.61px;}.cls-3,.cls-4,.cls-2,.cls-5{fill:#5c413e;}.cls-4,.cls-2{font-family:Raleway-Black, Raleway;font-size:8.25px;font-weight:800;}.cls-6{letter-spacing:.19em;}.cls-5{stroke-width:0px;}</style></defs><g id="OBJECTS"><path class="cls-5" d="M94.25,29.52c.11.01.22.02.33.02.37,0,.74-.06,1.1-.1.58-.07,1.16-.14,1.74-.23,1.98-.31,3.97-.6,5.96-.76.56-.05,1.12-.08,1.68-.12.54-.05,1.1,0,1.64-.14.82-.28.73-1.47-.11-1.65-.27-.06-.55-.03-.83-.02-3.14.17-6.3.47-9.36,1.23-.78.23-1.61.4-2.3.84-.54.31-.56.89.13.93Z"/><path class="cls-5" d="M109.19,28.07c.07.01.13.02.19.02.87,0,1.25-1.18.4-1.65-.5-.27-1.17.07-1.28.61-.1.46.23.93.68,1.02Z"/><path class="cls-5" d="M129.8,60.29c-1.22-2.72-2.76-5.56-4.5-8.03,0,0,0,0,0,0,.04-.18.01-.39-.11-.61-.2-.34-.62-.51-1-.4-.43.18-.82.46-1.27.6-.68.25-1.43.34-2.15.22-2.41-.47-3.92-2.48-6.53-2.4-1.82.04-3.49,1.08-4.64,2.45-1.18,1.34-1.95,3.35-3.82,3.85-.95.19-1.98-.03-2.8-.54-1.28-.94-2.1-1.7-3.82-1.31-1.17.25-1.93,1.25-2.95,1.8-1.54.85-3.22.53-4.75-.17-1.14-.49-2.1-1.37-3.32-1.66-1.17-.29-2.38.19-3.34.86-.15.12-.33.27-.5.44,0,0,0,0,0,0-1.57.82-2.86,6.84-3.39,8.55-3.09,11.51-4.3,23.52-3.27,35.41.27,3.19.7,6.36,1.36,9.49.41,1.49.41,3.55,2.04,4.26,5.61,2.7,11.88,3.84,18.07,4.05.56.01,1.12.02,1.68.02,4.08,0,8.17-.36,12.23-.77,3.32-.39,6.54-1.31,9.72-2.29,3.23-1.06,6.42-2.33,9.32-4.16.45-.28.61-.8.61-1.3.09-.97.24-1.94.35-2.91.59-5.04.59-10.12.56-15.19.27-10.15.41-20.75-3.78-30.21ZM130.9,108.55c-5,2.96-10.68,4.67-16.36,5.79-4.96.69-9.99,1.05-15,1-5.01-.1-10-.93-14.72-2.6-.99-.36-1.97-.75-2.91-1.23-.4-.13-.54-.47-.63-.85-2.28-9.23-2.59-18.9-1.84-28.34.57-6.74,1.93-13.4,3.72-19.91.47-1.74.98-3.47,1.68-5.13.04-.08.08-.17.12-.27,0,0,0,0,0,0,.27-.2.51-.45.79-.64.4-.27.85-.47,1.32-.59,1.01-.2,1.83.63,2.68,1.05,1.25.7,2.62,1.23,4.06,1.35.13,0,.25.01.38.01.95,0,1.9-.24,2.75-.66.38-.19.74-.41,1.08-.68.65-.52,1.35-1.22,2.25-1.06.73.17,1.22.81,1.86,1.16,1.38.83,3.17,1.11,4.69.53.98-.39,1.78-1.11,2.42-1.92.78-.96,1.38-2.08,2.3-2.92.8-.71,1.83-1.25,2.93-1.21,1.41.05,2.53,1.01,3.76,1.6,1.29.65,2.77,1.05,4.22.77.5-.09,1-.24,1.47-.44h0c.96,1.38,1.83,2.83,2.63,4.31,3.06,5.42,4.51,11.53,5.09,17.69.53,5.76.18,11.54.18,17.31.11,5.31-.21,10.62-.9,15.89Z"/><path class="cls-5" d="M94.13,55.36c.07.02.13.02.19.02.45,0,.82-.39.68-.87-.12-.25-.15-.53-.17-.81-.11-1.21.35-2.4.19-3.6-.24-1.5-1.64-2.53-3.04-1.61-.75.49-.98,1.45-1,2.3-.03,1.02.29,2.01.85,2.86.47.82,1.31,1.66,2.3,1.72ZM92.5,49.67c.2-.25.38-.35.54-.35.57,0,.9,1.29.79,1.87-.13.93-.2,1.87-.07,2.8-.72-.63-1.24-1.47-1.52-2.38-.11-.64-.08-1.36.26-1.93Z"/><path class="cls-5" d="M103.73,52.24c.15.11.33.15.53.15.62,0,1.4-.42,1.81-.66.7-.43,1.3-1,1.78-1.67.62-.93,1.23-1.99,1.19-3.14-.07-1.98-1.95-2.81-3.48-1.59-1.5,1.16-.94,2.57-1.23,4.19-.1.53-.4,1-.64,1.47-.15.3-.32.64-.18.97.06.12.13.21.22.28ZM105.69,48.39c.03-.59.24-1.15.51-1.67.08-.17.18-.34.33-.46.15-.11.32-.26.51-.26.03,0,.06,0,.09.01.07.04.14.09.21.14.13.1.25.21.29.37.21.65-.05,1.33-.33,1.92-.46,1.02-1.35,1.77-2.2,2.46.35-.79.55-1.65.6-2.51Z"/><path class="cls-5" d="M90.84,64.78c.08-1.16-1.12-2.01-2.21-1.87-.49.06-.88.39-1.2.75-.84.98-.57,2.99.83,3.29.11.02.22.03.33.03,1.17,0,2.23-1.02,2.25-2.21ZM89.66,65.66c-.17.16-.4.27-.63.31-1.37.16-1.56-1.82-.27-2.02.06,0,.13,0,.19,0,.18,0,.36.01.51.1.16.18.39.33.45.58.07.36-.04.74-.26,1.03Z"/><path class="cls-5" d="M89.98,68.98c-.31.67-.03,1.6.81,1.62.03,0,.07,0,.1,0,.8,0,1.54-.83,1.16-1.61-.26-.65-1.07-.91-1.64-.49-.19.11-.35.26-.43.47ZM90.88,68.94s.02,0,.03,0c.65,0,.93.96.17,1.09-.78.11-.85-.91-.2-1.09Z"/><path class="cls-5" d="M83.44,70.6c-1.02,1.69-.33,3.74,1.77,3.92.03,0,.06,0,.09,0,.49,0,.98-.14,1.41-.37.45-.27.72-.64,1.02-1.09.33-.64.26-1.46.01-2.12-.85-1.78-3.17-1.97-4.31-.35ZM86.82,72c-.04.69-.41,1.38-1.18,1.39-.91.11-1.65-.83-1.34-1.69.21-.61.45-.97,1.11-.97.03,0,.06,0,.09,0,.83-.1,1.4.45,1.32,1.27Z"/><path class="cls-5" d="M129.75,88.37c-.3.03-.54.21-.78.37-.31.16-.47.23-.86.36-1.3.4-2.2-.05-2.9-.5-.63-.4-1.11-.81-1.58-.59-.89.63.31,1.79.9,2.19.18.12.37.24.56.33-.02.03-.04.06-.06.08-.23.31-.49.61-.76.89-3.53,3.68-9.84,5.53-14.86,5.05-2.25-.21-4.41-.94-6.51-1.74-.17-.05-.36-.14-.57-.22,0,0,0,0,0,0,.53-2.32-.21-4.95-2.35-6.2-.51-.3-1.7-.77-1.85.13.05.66.81.98,1.22,1.41,1.17,1.04,1.59,2.72,1.27,4.22-.38,1.79-1.97,3.01-3.53,3.78-.45.24-1.03.22-1.4.58-.38.35-.33.99.11,1.27.17.11.38.16.62.16,1.36,0,3.57-1.64,4.27-2.4.43-.4.78-.88,1.06-1.4,0,0,0,0,0,0,.42.21.86.38,1.14.51,1.41.57,2.87,1.05,4.36,1.37,1.2.26,2.48.38,3.79.38,5.56,0,11.71-2.27,15.11-6.33.28-.34.52-.69.75-1.06h0c.07,0,.14,0,.2,0,.98,0,1.98-.24,2.76-.84.29-.21.59-.44.7-.8.17-.51-.29-1.09-.83-1.01Z"/><path class="cls-5" d="M93.31,104.77c-.56-.79-1.68-1.18-2.58-.76-.21.1-.39.24-.54.41-.16.11-.31.25-.42.41-.9,1.25-.02,3.1,1.52,3.2.07,0,.14,0,.2,0,1.71,0,3.02-1.75,1.82-3.26ZM91.6,106.63c-.46.06-.97-.29-.94-.79.02-.44.26-.82.74-.83.03,0,.05,0,.08,0,1.02,0,1.31,1.55.12,1.62Z"/><path class="cls-5" d="M94.97,108.69c-.62.01-1.23.3-1.53.87-.5,1.06.04,2.39,1.25,2.57.12.02.24.03.35.03,1.02,0,1.91-.81,1.84-1.89-.08-.93-.98-1.7-1.92-1.58ZM94.95,110.98c-.29.03-.59-.22-.58-.52.11-.44.64-.64,1.04-.75.35.43.13,1.21-.46,1.27Z"/><path class="cls-5" d="M49.06,110.39c-.68.39-1.86,1.13-1.18,2.02.17.19.37.27.58.27.41,0,.85-.31,1.15-.59.53-.49,1.42-.8,1.56-1.58-.09-1.18-1.51-.53-2.11-.13Z"/><path class="cls-5" d="M48.92,106.93c.08-.12.15-.26.13-.41-.13-.79-1.47-.3-1.92-.07-.73.42-2.22,1.26-1.48,2.25.2.2.4.27.59.27.63,0,1.24-.79,1.74-1.14.34-.27.68-.55.93-.91Z"/><path class="cls-5" d="M136.98,143.18h.01c.59,0,.88-.44.88-.87,0-.44-.3-.88-.89-.87-1.08.05-1.08,1.69,0,1.75Z"/><path class="cls-5" d="M124.08,86.32c.26.1.52.15.78.15.08,0,.15,0,.22-.01.32-.04.63-.15.93-.33.89-.54,1.62-1.68,1.97-3.2.46-2.36.15-4.53-.55-6.19l-.03.02-.09.05-.09.05-.09.05-.09.05-.09.05-.09.04-.09.04-.09.04-.09.04-.09.04-.09.04-.09.04-.09.05-.09.05-.09.05-.08.05-.08.05-.08.05-.08.05-.08.05-.08.04-.08.04-.07.04-.07.04-.07.04-.07.04-.06.04-.06.03-.06.03-.06.03-.06.03-.06.03-.05.03-.05.03-.05.03-.05.03-.05.03-.05.03-.05.03-.05.03-.05.03-.05.03-.04.03-.04.03-.04.03-.04.03-.04.03-.04.03-.04.03-.04.03-.04.03-.04.02-.04.03-.04.03-.04.02-.03.02-.03.02-.03.02-.03.02-.03.02h-.03s-.02.03-.02.03h-.02s-.02.02-.02.02h-.02s-.02.01-.02.01h-.01s-.01,0-.01,0h-.01s0,0,0,0h0s0,0,0,0h-.01s0,0,0,0h0s0,0,0,0h0s0-.01,0-.01h0s0,0,0,0h0s0,0,0,0h0s0,0,0,0h0s0,0,0,0h0s0,0,0,0h0s0,0,0,0h0s0,0,0,0h0s0,0,0,0h0s0,0,0,0h0s0,0,0,0h0s0,0,0,0h0s0,0,0,0h0s0,0,0,0h0s0,0,0,0h0s0-.01,0-.01h0s0-.01,0-.01h0s0-.01,0-.01h0s0-.02,0-.02h0s0-.01,0-.01h0s0-.02,0-.02h0s0-.02,0-.02h0s0-.02,0-.02h0s0-.02,0-.02h0s0-.02,0-.02h0s0-.02,0-.02h0s0-.02,0-.02h0s0-.02,0-.02h0s0-.02,0-.02h0s0-.02,0-.02h0s0-.03,0-.03h0s0-.03,0-.03h0s0-.03,0-.03h0s0-.03,0-.03v-.02s.01-.02.01-.02v-.02s.01-.02.01-.02v-.02s.01-.02.01-.02v-.02s.01-.02.01-.02v-.02s.02-.02.02-.02v-.02s.02-.02.02-.02v-.02s.02-.02.02-.02v-.02s.02-.02.02-.02v-.02s.02-.02.02-.02v-.02s.02-.02.02-.02v-.02s.02-.02.02-.02v-.02s.02-.02.02-.02v-.02s.02-.02.02-.02v-.02s.02-.02.02-.02v-.02s.02-.02.02-.02v-.02s.02-.02.02-.02v-.02s.03-.02.03-.02v-.02s.02-.02.02-.02v-.02s.03-.02.03-.02v-.03s.03-.02.03-.02v-.03s.03-.03.03-.03l.02-.03.02-.03.02-.03.02-.03.02-.03.02-.03.02-.04.02-.04.02-.04.02-.04.02-.04.02-.04.02-.04.02-.04.02-.04.02-.04.02-.04.02-.04.02-.04.02-.04.02-.05.02-.04.02-.05.02-.05.02-.05.02-.05.02-.05.02-.05.02-.05.02-.05.02-.05.02-.05.02-.04.02-.04.02-.04.02-.04.02-.04.02-.04.02-.04.02-.04.02-.04.02-.04.02-.04.02-.04.02-.04.02-.04.02-.04.02-.04.02-.05.03-.05.03-.05.03-.05.03-.05.03-.05.03-.05.03-.05.03-.05.03-.05.03-.05.03-.05.03-.05.03-.05.03-.05.03-.05.03-.05.03-.05.03-.05.03-.05.03-.05.02-.05.02-.05.02-.05.02-.05.02-.05h0c-1.65-1.38-3.68-.97-4.64,2.53-.77,3.5.51,8.67,2.98,9.45Z"/><path class="cls-5" d="M103.55,88.3c.26.1.52.15.78.15.07,0,.15,0,.22-.01.32-.04.63-.15.93-.33.89-.54,1.62-1.68,1.97-3.2.46-2.36.15-4.53-.55-6.19l-.03.02-.09.05-.09.05-.09.05-.09.05-.09.05-.09.04-.09.04-.09.04-.09.04-.09.04-.09.04-.09.04-.09.05-.09.05-.08.05-.09.05-.08.05-.08.05-.08.05-.08.05-.08.05-.08.04-.07.04-.07.04-.07.04-.07.04-.06.03-.06.03-.06.03-.06.03-.06.03-.06.03-.05.03-.05.03-.05.03-.05.03-.05.03-.05.03-.05.03-.04.03-.05.03-.04.03-.04.03-.04.03-.04.03-.04.03-.04.03-.04.03-.04.03-.04.03-.04.03-.04.03-.04.03-.04.03-.04.02-.03.02-.03.02-.03.02-.03.02-.03.02h-.03s-.02.03-.02.03h-.02s-.02.02-.02.02h-.02s-.02.01-.02.01h-.01s-.01.01-.01.01h-.01s-.01,0-.01,0h0s0,0,0,0h-.02s0,0,0,0h0s0,0,0,0h0s0,0,0,0h0s0,0,0,0h0s0,0,0,0h0s0,0,0,0h0s0,0,0,0h0s0,0,0,0h0s0,0,0,0h0s0,0,0,0h0s0,0,0,0h0s0,0,0,0h0s0,0,0,0h0s0,0,0,0h0s0,0,0,0h0s0,0,0,0h0s0,0,0,0h0s0-.01,0-.01h0s0-.01,0-.01h0s0-.01,0-.01h0s0-.01,0-.01h0s0-.01,0-.01h0s0-.02,0-.02h0s0-.02,0-.02h0s0-.02,0-.02h0s0-.02,0-.02h0s0-.02,0-.02h0s0-.02,0-.02h0s0-.02,0-.02h0s0-.02,0-.02h0s0-.02,0-.02h0s0-.02,0-.02h0s0-.02,0-.02h0s0-.03,0-.03h0s0-.03,0-.03h0s0-.03,0-.03v-.02s.01-.02.01-.02v-.02s.01-.02.01-.02v-.02s.01-.02.01-.02v-.02s.01-.02.01-.02v-.02s.01-.02.01-.02v-.02s.02-.02.02-.02v-.02s.02-.02.02-.02v-.02s.02-.02.02-.02v-.02s.02-.02.02-.02v-.02s.02-.02.02-.02v-.02s.02-.02.02-.02v-.02s.02-.02.02-.02v-.02s.02-.02.02-.02v-.02s.02-.02.02-.02v-.02s.02-.02.02-.02v-.02s.02-.02.02-.02v-.02s.02-.02.02-.02v-.02s.03-.02.03-.02v-.02s.03-.02.03-.02v-.02s.03-.02.03-.02v-.02s.03-.03.03-.03l.02-.03.02-.03.02-.03.02-.03.02-.03.02-.03.02-.03.02-.04.02-.04.02-.04.02-.04.02-.04.02-.04.02-.04.02-.04.02-.04.02-.04.02-.04.02-.04.02-.04.02-.04.02-.05.02-.04.02-.05.02-.05.02-.05.02-.05.02-.05.02-.05.02-.05.02-.05.02-.05.02-.05.02-.04.02-.04.02-.04.02-.04.02-.04.02-.04.02-.04.02-.04.02-.04.02-.04.02-.04.02-.04.02-.04.02-.04.02-.04.02-.04.02-.05.03-.05.02-.05.03-.05.03-.05.03-.05.03-.05.03-.05.03-.05.03-.05.03-.05.03-.05.03-.05.03-.05.03-.05.03-.05.03-.05.03-.05.03-.05.03-.05.03-.05.03-.05.02-.05.02-.05.02-.05.02-.04h0c-1.65-1.38-3.68-.97-4.64,2.53-.77,3.5.51,8.67,2.98,9.45Z"/><path class="cls-5" d="M171.88,70.68c-.58-.39-1.2-.62-1.83-.69.28-.72.51-1.45.75-2.18.89-2.59,1.16-7.1-2.13-8.01-1.11-.25-2.32.14-3.19.84-.74.65-1.35,1.44-1.85,2.3-.07-.55-.19-1.1-.38-1.63-.52-1.79-1.83-2.65-3.68-2.36-2.25.3-3.24,2.7-3.71,4.66-.45,1.79-.38,3.67-.16,5.49.13.58.06,1.73.39,2.39-2.49,1.55-4.22,4.11-3.81,7.21.34,1.83,1.47,3.64,3.13,4.55-.53.58-.83,1.35-.71,2.16.18,1.2,1.26,2.13,2.45,2.25.1.01.2.02.29.02-.11.2-.2.42-.28.63-.84,2.45-2.35,5.11-5.08,5.72-2.91.84-5.71-1.05-7.67-3.03-1.62-1.63-2.88-3.59-4.01-5.58-.81-1.51-1.61-3.02-2.27-4.6-.4-.92-.67-1.91-.94-2.88-.04-.52-.08-1.05-.13-1.57-.7-7.28-1.29-14.89-4.89-21.41-1.24-2.21-3.06-4.04-4.99-5.67-2.68-2.31-6.26-3.67-8.18-6.77-.27-.45-.47-.92-.64-1.41.02.01.05.03.07.04.78.42,1.71.85,2.95.78,3.02.05,5.33-3.09,3.03-5.58-.8-.93-1.84-1.6-2.71-2.46-.15-.13-.26-.29-.37-.47.17-.17.3-.34.39-.53.36-.72.12-1.65-.56-2.08-.36-.24-.78-.37-1.21-.44.02-.28,0-.57-.02-.83-.16-1.44-.33-3.06-1.4-4.14-2.57-2.58-15.53-1.82-19.26-1.18-2.83.51-6.14,1.11-7.92,3.6-.68.98-1,2.2-.88,3.39.02.13.03.27.05.4-.96.21-1.79.92-1.61,2.02.11.71.63,1.24,1.22,1.62-.16.32-.31.64-.5.84-.73.95-1.81,1.54-2.61,2.42-2.58,2.72-1.33,6.72,2.67,6.43.22-.02.44-.05.64-.11-.53.56-1.12,1.07-1.73,1.53-2.52,1.89-5.39,3.4-7.38,5.91-2.45,2.97-4.12,6.55-5.09,10.27-.54,2.14-.87,4.33-1.16,6.52-.45,3.82-.82,7.65-1.09,11.49-.12.23-.26.46-.36.7-.31.7-.59,1.41-.91,2.11-1.85,4.27-4.42,8.18-7.37,11.77-1.78,2.21-3.65,4.39-5.86,6.18-.58.44-1.19.85-1.79,1.28-.12.1-.31.21-.49.34-.22-.56-.68-1.02-1.28-1.19-1.17-.33-2.4.17-3.24,1.02-.51-.52-1.61-.74-2.19-.88-2.05-.4-4.21-.1-6.12.74-2.01.91-3.78,2.27-5.26,3.9-.71.77-1.42,1.6-1.73,2.62-.5,1.47.06,3.47,1.43,4.28.07.03.13.05.2.07-.46,2.2.89,4.73,3.27,4.93.14.02.28.02.42.02.16,2.14,1.78,4.08,4.3,4.43.93.11,1.88-.05,2.74-.41.61-.28,1.72-.84,1.85-1.53,3.58.4,6.84-2.58,7.59-5.96.27-1.26.25-2.61-.13-3.85-.03-.2-.11-.38-.23-.52.83-.51,1.44-1.36,1.58-2.45.15-.65.09-1.46-.34-1.96.67-.35,1.26-.82,1.86-1.32,1.2-1.03,2.36-2.11,3.5-3.21,2.09-2.07,4.07-4.26,5.83-6.62.85-1.14,1.68-2.34,2.4-3.59.03,3.37.18,6.75.46,10.11.2,2.36.46,4.71.79,7.06.21,1.42.37,2.86.85,4.22.41,1.13,1.2,2.11,2.22,2.74,2.65,1.67,5.76,2.38,8.75,3.21,3.49.85,7.06,1.43,10.66,1.54.67.02,1.33.04,2,.06.12.39.46.78.73,1.06,3.55,3.85,7.66,7.15,11.9,10.22,2.75,1.97,5.57,3.85,8.59,5.37,1.31.65,2.64,1.28,4.03,1.76-.18.09-.35.2-.51.35-.89.86-.51,2.17.25,3.01,0,.01,0,.02-.01.03-.76,1.76-.39,3.8.33,5.52,1.38,3.36,4.69,5.87,8.37,5.92.21,0,.42.01.63.01,3.44,0,6.76-1.19,9.93-2.45,2.17-.82,4.22-1.83,6.17-3.13,3.07-2,5.92-4.41,8.21-7.28,1.49-1.97,2.46-4.32,2.97-6.73.64-3.47.1-7.22-1.6-10.33-1.37-2.35-3.61-4.2-6.2-5.07-2.68-.85-5.68-.93-8.32.1-1.69.62-3.2,1.66-4.52,2.88-1.72,1.55-3.04,3.48-3.97,5.59-.67,1.54-1.19,3.18-1.47,4.85-.16,0-.32.04-.47.07-1.07.22-2.06.88-2.64,1.8-.01.02-.02.04-.04.06-.61-.48-1.38-.77-2.28-.77-1.12.02-2.15.46-2.18,1.73,0,.14.01.27.02.39-.32-.14-.65-.28-.97-.43-.62-.29-1.21-.59-1.84-.88-2.93-1.41-5.92-2.78-8.68-4.53-3.76-2.43-7.18-5.29-10.6-8.16-.3-.25-.61-.51-.92-.78.15,0,.3,0,.45,0,3.46,0,6.92-.36,10.34-.85.13-.02.25-.04.38-.06-.07.07-.14.14-.21.21-.75.72-1.5,1.43-2.29,2.1-.74.6-1.51,1.17-2.31,1.69.16.12.31.24.47.36.37.29.74.58,1.11.87.37.29.74.58,1.11.87.19.15.39.3.58.45,1.72-1.1,3.39-2.43,4.72-4,.91-1.06,1.78-2.2,2.32-3.5,4.41-.92,8.73-2.27,12.59-4.64.84-.54,1.74-1.08,2.35-1.9.35-.5.5-1.11.6-1.71.19-1.07.3-2.15.42-3.23.55-5.08,1.09-10.17,1.03-15.29.01-1.54-.07-3.07-.16-4.6,0-.14-.02-.29-.02-.43.73,1.74,1.72,3.36,2.87,4.87.71.94,1.61,2.04,2.54,2.88.76.66,1.56,1.28,2.43,1.79,1.43.79,3.02,1.34,4.64,1.51,2.69.4,5.27-1.03,7.04-2.97,1.11-1.3,2.04-2.76,2.71-4.33.26-.66.59-1.32.69-2.03.29.15.6.25.92.27,1.17.09,2.05-.47,2.44-1.31.09.03.18.05.27.05,3.37.41,6.05-2.35,7.34-5.19.77-1.55,1.3-3.31,1.02-5.05-.02-.11-.06-.21-.12-.3.37-.74.63-1.54.75-2.37.28-1.46-.09-3.18-1.35-4.09ZM57.47,114.04c-.25,2.21-1.94,4.36-4.09,4.98-.69.2-1.41.25-2.11.08-.31-.08-.63-.17-.86-.39.29-1.06,1.35-1.62,1.89-2.52.22-.35.04-.85-.39-.9-.97-.05-2.07.98-2.6,1.72-1.14,1.55-.73,2.75.45,3.41-.24.17-.5.32-.77.43-.81.33-1.74.42-2.57.1-1.5-.59-2.33-2.11-1.93-3.69.2-.7.61-1.32.96-1.95.28-.43.38-1.11-.3-1.18,0,0-.02,0-.03,0-.46,0-.84.32-1.13.65-.55.6-.93,1.25-1.14,1.93-.16-.02-.33-.02-.49-.03-.8-.08-1.39-.76-1.61-1.5-.55-1.85,1.06-3.14,2.11-4.42.34-.38.46-1.06-.17-1.2-.43-.06-.83.17-1.17.4-.72.54-1.39,1.2-1.88,1.96-.05-.04-.09-.08-.14-.12-.25-.26-.41-.59-.51-.93-.39-1.49.95-2.65,1.86-3.64.89-.91,1.9-1.71,3-2.35,1.44-.88,3.09-1.38,4.77-1.4.86,0,1.71.12,2.53.32.22.04.44.13.67.18-.34.84-.41,1.77-.3,2.67.24,2.25,2.27,4.05,4.44,4.44.41.08.82.1,1.22.06,0,.41.25.84.28,1.26.08.54.07,1.09.01,1.63ZM56.9,109.41c-1.52,0-3.08-1.05-3.54-2.52-.36-1.35,0-3.17,1.59-3.45.06,0,.12-.01.18-.01.12,0,.24.02.32.11.1.36.03.75.06,1.12.06.55.15,1.13.43,1.61.55.94,1.74,1.09,2.74,1.07.63,1.21-.69,2.07-1.78,2.07ZM134.52,151.86c-1.19.06-2.42.06-3.57-.31-.25-.09-.49-.2-.73-.31.04-.1.08-.2.12-.3.32-.59.79-1.04,1.32-1.42.53.35,1.13.58,1.71.83,1.22.51,2.49.88,3.79,1.12-.87.2-1.74.33-2.64.39ZM138.56,151.1c-.99-.28-1.98-.59-2.93-.98-.94-.39-1.87-.8-2.77-1.28-.02,0-.03-.02-.05-.03.11-.06.21-.11.32-.17.79-.41,1.62-.7,2.45-1,.25.52,1.41.87,1.82,1.02.56.18,1.11.38,1.67.54.97.27,1.95.54,2.94.69-1.14.44-2.29.86-3.46,1.2ZM143.42,149.36c-.74-.16-1.47-.31-2.2-.51-1-.28-2.12-.58-3.11-.96-.48-.19-.92-.45-1.39-.67,0,0-.02,0-.03-.01.16-.06.31-.13.47-.2,1.06-.52,2.06-1.16,2.99-1.88,1.29,1.06,5.47,1.97,7.39,2.22-1.32.77-2.69,1.45-4.12,2.01ZM148.27,146.91s-.1-.02-.15-.03c-1.32-.31-2.63-.7-3.89-1.2-1.03-.37-1.97-.97-2.92-1.51.54-.48,1.05-.98,1.54-1.5.06-.07.13-.14.19-.21,1.58,1.01,5.86,2.12,8.12,2.44-.93.72-1.9,1.4-2.9,2.02ZM152.94,143.41c-.35.31-.71.61-1.07.91-.59-.2-1.2-.35-1.77-.57-2.06-.73-4.12-1.5-6.01-2.61.42-.59.81-1.2,1.17-1.83.53.27,1.06.52,1.6.77,1.84.82,3.78,1.43,5.77,1.75.57.09,1.15.2,1.73.28-.44.43-.92.87-1.43,1.31ZM154.93,141.54c-.52-.16-1.05-.3-1.57-.47-.96-.31-1.91-.66-2.84-1.04-1.53-.64-3.04-1.33-4.49-2.15,0,0-.01,0-.02-.01.33-.69.63-1.4.9-2.12.76.35,1.56.63,2.36.88,2.65.93,5.45,1.22,8.23,1.53-.69,1.23-1.54,2.31-2.57,3.38ZM159.13,133.78c-.32,1.45-.75,2.69-1.31,3.81-.29-.09-.6-.15-.89-.25-.65-.18-1.31-.36-1.96-.54-2.55-.72-5.08-1.58-7.47-2.72.06-.18.11-.35.16-.53.23-.76.42-1.55.65-2.32.5.29,1.06.48,1.6.69.69.24,1.39.44,2.1.63,2.25.61,4.7.92,7.04,1.11.03,0,.06,0,.1,0,0,.04-.02.08-.02.12ZM158.73,129.02c.29.85.45,1.77.53,2.63.02.47.01.93-.02,1.4-.72-.2-1.43-.42-2.16-.61-2.27-.62-4.61-1.06-6.82-2-.49-.19-.96-.43-1.46-.61.29-.69.66-1.34,1.17-1.92.07-.07.14-.15.21-.22.2.08.42.12.62.16.35.08.7.17,1.06.24,2.21.47,4.45.84,6.71.93.04,0,.1,0,.16,0ZM157.07,127.84c-1.79-.44-3.59-.9-5.38-1.36.93-.57,1.98-.94,3.02-.94.52,0,1.03.09,1.52.3.99.52,1.68,1.36,2.15,2.33-.44-.12-.88-.22-1.31-.33ZM133.14,138.76c.31-1.27.09-2.62-.55-3.67.06-.04.11-.09.16-.12.48-.37.98-.76,1.55-.97.09-.03.19-.06.29-.08-.04.61-.04,1.21,0,1.82.07.88.55,4.37,1.58,4.45.21.04.38-.15.47-.33.22-.56.05-1.19-.03-1.77-.12-.75-.23-1.5-.29-2.26-.14-2.89.64-5.98,1.93-8.6,1.66-3.37,4.92-6.44,8.67-7.23,3.05-.56,6.44.12,8.79,2.21.84.72,1.51,1.55,2.04,2.47-.49-.33-1.03-.59-1.63-.76-3.3-.76-6.89,1.39-8.5,4.24-1.08,2.03-1.4,4.35-2.18,6.49-.86,2.32-1.98,4.58-3.6,6.47-1.48,1.65-3.22,3.12-5.19,4.16-1.39.67-2.9,1.04-4.28,1.76-1.38.69-2.81,1.6-3.45,3.07-.04.09-.07.18-.1.28-.98-.74-1.8-1.69-2.34-2.82-.66-1.35-1.11-2.97-.66-4.43.4.12.82.18,1.23.2,2.74.08,5.47-1.86,6.08-4.58ZM127.06,139.7c1.08-.76,1.81-2.05,1.92-3.37.04-.49,0-.99-.03-1.48.09-.09.19-.12.3-.12.16,0,.33.06.48.1,1.08.33,1.7,1.46,1.76,2.54.15,2.22-1.89,4.05-4.01,4.19-.83.06-1.97-.18-2.18-1.12.57-.27,1.22-.38,1.75-.74ZM92.69,29.06c2.18-3.56,11.58-3.6,15.47-3.67,2.84.07,5.8.03,8.54.88,1.18.47,1.26,1.92,1.44,3.01.05.3.03.67.05,1.02-.48.03-.96.08-1.44.14-3,.4-5.81,1.05-8.87,1.18-3.06.14-6.13.22-9.19.33-1.01-.02-2.02-.1-3.02-.14-.03,0-.06,0-.09,0-.07,0-.14,0-.21,0-.4,0-.8,0-1.2-.05-.67-.05-1.34-.14-2.01-.19,0-.04,0-.08,0-.11.03-.83.09-1.69.54-2.41ZM89.7,43.16c-1.47.24-2.73-.79-2.06-2.3.38-1.02,1.29-1.67,2.1-2.33.59-.46,1.63-1.56,1.99-2.58.66.2,1.35.31,2.03.4,2.11.24,4.25.31,6.38.34.5,0,1.01.01,1.51.01,2.63,0,5.26-.11,7.87-.42,2.17-.22,4.34-.43,6.49-.78.94-.18,2.52-.53,3.81-1.11.76,1.09,2.47,2.25,2.97,2.8.42.44.94.98.76,1.64-.42,1.28-2.05,1.5-3.2,1.2-1.01-.23-1.79-.99-2.76-1.3-2.07-.62-3.26.57-4.44,1.77-1.24,1.25-2.46,2.5-4.67,1.66-1.63-.57-2.38-2.92-4.35-2.53-2.72.55-3.34,4.45-6.36,4.41-1.26.05-2.02-.5-2.71-1.06-.66-.53-1.27-1.06-2.22-1.06h-.01c-1.15.07-2.01,1.05-3.13,1.24ZM135.11,106.82c-.12,1.03-.22,2.06-.39,3.09-.13.88-.22,1.36-.99,1.89-5.61,3.98-12.58,5.26-19.25,6.25-2.92.4-5.86.74-8.81.79-2,.02-4-.11-6-.19-3.15-.05-6.3-.24-9.39-.87-2.16-.39-4.29-.93-6.39-1.57-1.61-.47-3.22-1.02-4.68-1.87-.5-.29-.99-.63-1.34-1.09-.65-.86-.82-1.96-1.01-3-.98-6.1-1.42-12.28-1.52-18.46-.09-7.44.54-14.86,1.39-22.25.54-4.59,1.46-9.17,3.85-13.19,1.17-2.02,2.64-3.89,4.51-5.31,2.38-1.82,5.17-3.21,7.08-5.58.29-.41.83-1.05,1.01-1.66.08.04.15.1.22.15.57.47,1.13.97,1.81,1.29.79.4,1.61.58,2.41.58,1.95,0,3.8-1.09,4.98-2.82.54-.63,1.09-1.52,1.98-1.63.48.15.76.63,1.12.96,1.48,1.65,3.98,2.38,6.05,1.47,1.68-.6,2.56-2.27,3.98-3.23.2-.12.4-.18.59-.21.51,2.48,1.89,4.47,3.84,6.06,1.69,1.39,3.63,2.45,5.36,3.79,1.49,1.18,2.89,2.5,4.07,4,3.77,5.22,4.78,12.67,5.41,18.97.63,5.94.86,11.91,1.11,17.88.1,5.27-.4,10.52-.98,15.76ZM163.11,69.76c.04-.3.1-.59.15-.88.18-.62.35-1.24.54-1.86.55-1.65,1.78-4.71,3.47-5.37.25-.1.48-.14.68-.14,1.05,0,1.56,1.17,1.63,2.26.12,1.23-.13,2.46-.5,3.62-.26.8-.54,1.65-.87,2.44-.09.17-.16.35-.21.54-.5.25-.96.61-1.34,1.09-.65-.47-1.4-.8-2.15-1.05-.46-.17-.95-.3-1.44-.38.01-.09.03-.18.04-.27ZM157.32,65.96c.07-1.27.36-2.54.87-3.7.47-.94,1.01-1.58,2.02-1.58.12,0,.25,0,.39.03.56.07.8.61.96,1.09.19.55.31,1.13.37,1.71.08,1.29.01,2.6-.2,3.88-.14.84-.32,1.68-.43,2.53-1.26.04-2.54.33-3.72.83,0-.2,0-.39-.01-.55-.07-1.41-.31-2.81-.24-4.23ZM161.69,87.21c-.29.01-.45-.22-.63-.41-.16-.16-.32-.32-.51-.45-.49-.31-1.04-.55-1.62-.63-.04,0-.08,0-.12,0-.22,0-.43.04-.64.09-.29.06-.58.12-.88.07-.62-.09-1.09-.76-.67-1.32.46-.61,1.26-.63,1.97-.62,1.05.02,2.09.37,2.9,1.05.63.47,1.63,2.2.21,2.22ZM169.24,83.08c-.89,1.38-2.18,2.57-3.83,2.89-.35.07-.71.12-1.07.16-.06,0-.12.01-.18.02-.03-.19-.08-.38-.15-.57-.46-1.36-1.65-2.34-2.93-2.9-.83-.34-1.75-.52-2.66-.52-.46,0-.93.05-1.38.14-.37-.41-.97-.62-1.37-1.01-1.85-1.72-2.19-4.22-.75-6.31,1.93-2.67,5.72-3.95,8.87-2.94.98.32,2,.76,2.61,1.63,1.36,2.36-.94,3.18-2.91,3.29-1.52.12-3.07.14-4.55-.28-.64-.34-1.64-.08-1.53.78.18,1.46,4.39,1.37,5.54,1.32.23-.01.47-.03.71-.05.02.04.03.08.05.12.08.24.07.49.03.73-.09.46-.26.9-.5,1.3-.2.34-.51.75-.36,1.16.47.78,1.49,0,1.86-.52.3-.39.51-.84.65-1.31.16.19.35.36.56.48,1.51.82,3.47.06,4.64-1.03.07-.06.14-.13.2-.2-.27,1.29-.87,2.49-1.56,3.61ZM171.25,75.49c-.54,1.66-2.24,3.98-4.2,3.76-.34-.04-.54-.39-.6-.7-.03-.14-.04-.28-.07-.42.6-.27,1.14-.65,1.55-1.21.93-1.21.78-2.91-.01-4.16.07-.09.13-.18.2-.26.2-.23.45-.42.72-.57.25-.11.51-.16.78-.16.48,0,.96.16,1.33.45.87.86.61,2.22.31,3.28Z"/><polygon class="cls-5" points="112.26 125.17 112.26 125.17 112.26 125.17 112.26 125.17"/><path class="cls-5" d="M76.95,147c.09.04.17.05.25.05.56,0,.95-.78.47-1.21-.83-.71-1.73.71-.73,1.16Z"/><path class="cls-5" d="M105.04,128.18s-.05-.05-.07-.07c0,0,0,0,0,0,0,0,0,0-.01-.01,0,0,0,0,0,0h0c-.05-.04-.1-.08-.15-.13,0,0,0,0,0,0-.09-.08-.19-.16-.28-.24,0,0,.01.01.02.02-.06-.05-.12-.11-.19-.16,0,0,0,0,0,0,0,0,0,0-.01-.01h0s0,0,0,0c-.03-.02-.06-.05-.09-.07,0,0,0,0,.01.01-.01,0-.02-.02-.03-.03h0s0,0-.01-.01c0,0,0,0-.01,0,0,0,0,0,0,0-.03-.02-.06-.05-.08-.07h0s0,0-.01,0c0,0,0,0-.01-.01-.13-.12-.26-.23-.38-.35-.44.13-.88.27-1.33.39-1.85.52-3.76.9-5.65,1.27-1.72.24-3.46.41-5.19.53-.27,0-.54.01-.81.02-1.81.01-3.63.06-5.43-.17.14-.54.09-1.11-.19-1.61-.25-.57-.79-.95-1.35-1.16-.8-.27-1.69-.11-2.46.2-.09.04-.18.09-.27.14-.27-.22-.59-.4-.76-.49-.71-.37-1.51-.55-2.29-.67-1.68-.28-3.47-.18-5.01.6-2.39,1.2-4.43,3.4-5.01,6.05-.24,1.12-.23,2.26-.15,3.39.17,2.3.53,4.58,1.18,6.79,1.51,5.47,4.85,9.86,9.83,12.61,2.91,1.7,6.37,1.83,9.64,2.11.59.04,1.19.06,1.81.06,2.94,0,6.13-.51,8.26-2.52,1.67-1.66,2.37-4.11,2.3-6.43-.11-5.08-3.46-8.93-8.37-10.05-2.06-.44-4.21-.37-6.27.03,0,0,0-.02-.01-.02-.11-.25-.28-.48-.48-.66.53-.17,1-.49,1.33-.96.52-.62.5-1.49.18-2.2-.2-.42-.51-.77-.85-1.08.53.03,1.05.04,1.58.04h0c1.63.02,3.25-.08,4.87-.19,1.87-.12,3.75-.25,5.6-.58,1.95-.39,3.89-.84,5.79-1.46.4-.14.8-.29,1.2-.43.56-.14,1.11-.37,1.65-.6-.26-.22-.52-.45-.78-.67-.41-.36-.81-.72-1.21-1.1ZM91.67,139.72c5.02.96,8.02,5.08,7.26,10.16-.41,2.21-1.57,3.91-3.74,4.65-1.92.68-3.99.83-6.01.73-1.97-.1-3.93-.31-5.88-.64-1.61-.24-3.1-.92-4.47-1.79-3.09-1.9-5.62-4.71-7.06-8.05-1.24-2.86-1.91-5.94-2.17-9.04-.14-1.42-.17-3.17.5-4.52.9-1.77,2.49-3.21,4.34-3.91.8-.3,1.64-.41,2.48-.41.65,0,1.31.07,1.95.17.41.08.8.18,1.2.31-.39.45-.69.99-.89,1.54-.85,2.63.13,5.7,2.3,7.4.76.67,1.72,1.08,2.72,1.19.07.21.22.43.29.62.04.12.09.24.13.36-1.25.4-2.43.99-3.5,1.75-.83.55-3.57,3.06-3.22,4.08.13.46.65.74,1.1.6.37-.1.54-.45.72-.75.15-.22.3-.44.47-.65.56-.67,1.2-1.28,1.91-1.8,2.72-1.97,6.28-2.49,9.57-2ZM84.8,136.17c-1,.04-1.87-.62-2.54-1.3-1.28-1.39-2.08-3.44-1.52-5.31.3-.89,1.06-1.84,2.03-2,.05,0,.09,0,.14,0,.47,0,1.03.24,1.02.77-.15.92-.86,1.69-.8,2.66.06,1.48,1.36,2.43,2.45,3.23,1.03.79.33,1.87-.78,1.97Z"/><polygon class="cls-5" points="105.34 128.4 105.35 128.4 105.34 128.4 105.34 128.4"/><polygon class="cls-5" points="105.34 128.4 105.34 128.4 105.34 128.4 105.34 128.4"/><polygon class="cls-5" points="105.34 128.4 105.34 128.4 105.33 128.39 105.34 128.4"/></g><g id="TEXTS"><text class="cls-3" transform="translate(0 191.14)"><tspan x="0" y="0">巴柏沒有踢</tspan></text><text class="cls-4" transform="translate(29.43 138.14)"><tspan class="cls-1" x="0" y="0">ES</tspan><tspan class="cls-6" x="14.14" y="0">T</tspan><tspan class="cls-1" x="20.89" y="0">.</tspan></text><text class="cls-2" transform="translate(165.64 138.14)"><tspan x="0" y="0">2005</tspan></text><text class="cls-4" transform="translate(44.66 48.14) rotate(-61.44)"><tspan x="0" y="0">1</tspan></text><text class="cls-4" transform="translate(47.82 42.5) rotate(-56.28)"><tspan x="0" y="0">0</tspan></text><text class="cls-4" transform="translate(51.78 36.72) rotate(-50.94)"><tspan x="0" y="0">0</tspan></text><text class="cls-4" transform="translate(56.21 31.34) rotate(-44.89)"><tspan x="0" y="0">%</tspan></text><text class="cls-4" transform="translate(62.71 25.14) rotate(-40.02)"><tspan x="0" y="0"> </tspan></text><text class="cls-4" transform="translate(65.62 22.69) rotate(-35.46)"><tspan x="0" y="0">N</tspan></text><text class="cls-4" transform="translate(72.31 18.06) rotate(-29.51)"><tspan x="0" y="0">A</tspan></text><text class="cls-4" transform="translate(78.35 14.73) rotate(-24.35)"><tspan x="0" y="0">T</tspan></text><text class="cls-4" transform="translate(84.82 11.88) rotate(-18.52)"><tspan x="0" y="0">U</tspan></text><text class="cls-4" transform="translate(92.49 9.43) rotate(-12.53)"><tspan x="0" y="0">R</tspan></text><text class="cls-4" transform="translate(99.84 7.9) rotate(-6.79)"><tspan x="0" y="0">A</tspan></text><text class="cls-4" transform="translate(107.23 7.13) rotate(-1.41)"><tspan x="0" y="0">L</tspan></text><text class="cls-4" transform="translate(113.78 7.07) rotate(2.4)"><tspan x="0" y="0"> </tspan></text><text class="cls-4" transform="translate(117.34 7.22) rotate(6.5)"><tspan x="0" y="0">A</tspan></text><text class="cls-4" transform="translate(124.72 8.14) rotate(12.48)"><tspan x="0" y="0">N</tspan></text><text class="cls-4" transform="translate(132.63 10.01) rotate(18.63)"><tspan x="0" y="0">D</tspan></text><text class="cls-4" transform="translate(140.02 12.66) rotate(23.12)"><tspan x="0" y="0"> </tspan></text><text class="cls-4" transform="translate(143.54 14.15) rotate(27.77)"><tspan x="0" y="0">O</tspan></text><text class="cls-4" transform="translate(150.76 18.09) rotate(33.78)"><tspan x="0" y="0">R</tspan></text><text class="cls-4" transform="translate(156.87 22.28) rotate(39.64)"><tspan x="0" y="0">G</tspan></text><text class="cls-4" transform="translate(162.97 27.48) rotate(45.51)"><tspan x="0" y="0">A</tspan></text><text class="cls-4" transform="translate(168.13 32.85) rotate(51.45)"><tspan x="0" y="0">N</tspan></text><text class="cls-4" transform="translate(173.09 39.32) rotate(56.3)"><tspan x="0" y="0">I</tspan></text><text class="cls-4" transform="translate(175.6 43.12) rotate(60.97)"><tspan x="0" y="0">C</tspan></text></g></svg>